<svg xmlns="http://www.w3.org/2000/svg" viewBox="0 0 800 500" width="800" height="500" role="img" aria-label="Desktop screenshot — coming soon">
  <rect width="800" height="500" rx="12" fill="#15131A"/>
  <rect x="1" y="1" width="798" height="498" rx="11" fill="none" stroke="#2A2533" stroke-width="2"/>
  <!-- title bar -->
  <rect x="2" y="2" width="796" height="48" rx="11" fill="#1E1B26"/>
  <circle cx="28" cy="26" r="6" fill="#C8443B"/>
  <circle cx="50" cy="26" r="6" fill="#E0A436"/>
  <circle cx="72" cy="26" r="6" fill="#3FA66A"/>
  <!-- sidebar -->
  <rect x="20" y="70" width="200" height="410" rx="10" fill="#1E1B26"/>
  <rect x="40" y="96" width="150" height="14" rx="7" fill="#2A2533"/>
  <rect x="40" y="126" width="120" height="14" rx="7" fill="#2A2533"/>
  <rect x="40" y="156" width="140" height="14" rx="7" fill="#2A2533"/>
  <!-- glyph -->
  <g fill="none" stroke="#E0A436" stroke-width="5" stroke-linecap="round" stroke-linejoin="round" transform="translate(440 150)">
    <circle cx="34" cy="34" r="26"/>
    <path d="M52 52 L92 92"/>
    <path d="M74 74 l10 -10"/>
  </g>
  <text x="510" y="320" text-anchor="middle" font-family="-apple-system, Segoe UI, sans-serif" font-size="30" fill="#E8E2D0" font-weight="700">ichtaca-desktop</text>
  <text x="510" y="360" text-anchor="middle" font-family="-apple-system, Segoe UI, sans-serif" font-size="20" fill="#6B6478">desktop screenshot — coming soon</text>
</svg>
